<svg xmlns="http://www.w3.org/2000/svg" width="900" height="450" viewBox="0 0 900 450" role="img" aria-labelledby="title desc">
  <title id="title">Relevance and long-tail frontier</title>
  <desc id="desc">Generated from benchmarks/reports/portfolio_evidence.json.</desc>
  <rect width="100%" height="100%" rx="20" fill="#f8fafc"/>
  <style>
    text { font-family: Inter, ui-sans-serif, system-ui, -apple-system, sans-serif; fill: #0f172a; }
    .muted { fill: #64748b; }
    .grid { stroke: #cbd5e1; stroke-width: 1; }
  </style>
<text x="45" y="45" font-size="26" font-weight="700">Relevance–long-tail frontier</text>
<text x="45" y="72" font-size="15" class="muted">Measured reranker trade-off · each point is a configured tail weight</text>
<line x1="90.0" y1="92" x2="90.0" y2="380" class="grid"/>
<text x="90.0" y="408" text-anchor="middle" font-size="12" class="muted">93.7%</text>
<line x1="90" y1="380.0" x2="850" y2="380.0" class="grid"/>
<text x="78" y="384.0" text-anchor="end" font-size="12" class="muted">0.019</text>
<line x1="280.0" y1="92" x2="280.0" y2="380" class="grid"/>
<text x="280.0" y="408" text-anchor="middle" font-size="12" class="muted">95.1%</text>
<line x1="90" y1="308.0" x2="850" y2="308.0" class="grid"/>
<text x="78" y="312.0" text-anchor="end" font-size="12" class="muted">0.021</text>
<line x1="470.0" y1="92" x2="470.0" y2="380" class="grid"/>
<text x="470.0" y="408" text-anchor="middle" font-size="12" class="muted">96.5%</text>
<line x1="90" y1="236.0" x2="850" y2="236.0" class="grid"/>
<text x="78" y="240.0" text-anchor="end" font-size="12" class="muted">0.023</text>
<line x1="660.0" y1="92" x2="660.0" y2="380" class="grid"/>
<text x="660.0" y="408" text-anchor="middle" font-size="12" class="muted">97.9%</text>
<line x1="90" y1="164.0" x2="850" y2="164.0" class="grid"/>
<text x="78" y="168.0" text-anchor="end" font-size="12" class="muted">0.025</text>
<line x1="850.0" y1="92" x2="850.0" y2="380" class="grid"/>
<text x="850.0" y="408" text-anchor="middle" font-size="12" class="muted">99.3%</text>
<line x1="90" y1="92.0" x2="850" y2="92.0" class="grid"/>
<text x="78" y="96.0" text-anchor="end" font-size="12" class="muted">0.027</text>
<path d="M 144.0 124.6 L 236.4 149.3 L 390.4 211.2 L 611.2 273.1 L 683.1 285.5 L 796.0 347.4" fill="none" stroke="#0891b2" stroke-width="4"/>
<circle cx="144.0" cy="124.6" r="7" fill="#0891b2" stroke="#fff" stroke-width="3"/>
<text x="154.0" y="114.6" font-size="12" font-weight="600">w=0</text>
<circle cx="236.4" cy="149.3" r="7" fill="#0891b2" stroke="#fff" stroke-width="3"/>
<text x="246.4" y="139.3" font-size="12" font-weight="600">w=0.1</text>
<circle cx="390.4" cy="211.2" r="7" fill="#0891b2" stroke="#fff" stroke-width="3"/>
<text x="400.4" y="201.2" font-size="12" font-weight="600">w=0.25</text>
<circle cx="611.2" cy="273.1" r="7" fill="#0891b2" stroke="#fff" stroke-width="3"/>
<text x="621.2" y="263.1" font-size="12" font-weight="600">w=0.5</text>
<circle cx="683.1" cy="285.5" r="7" fill="#0891b2" stroke="#fff" stroke-width="3"/>
<text x="693.1" y="275.5" font-size="12" font-weight="600">w=1</text>
<circle cx="796.0" cy="347.4" r="7" fill="#0891b2" stroke="#fff" stroke-width="3"/>
<text x="806.0" y="337.4" font-size="12" font-weight="600">w=2</text>
<text x="470.0" y="438" text-anchor="middle" font-size="13">Top-10 long-tail exposure</text>
<text x="20" y="236.0" transform="rotate(-90 20 236.0)" text-anchor="middle" font-size="13">NDCG@10</text>
</svg>
